<svg xmlns="http://www.w3.org/2000/svg" xmlns:xlink="http://www.w3.org/1999/xlink" viewBox="0 0 1508.23 508"><defs><style>.cls-1{isolation:isolate;}.cls-2{stroke:#251e1c;fill:url(#무제_그라디언트_34);}.cls-2,.cls-8{stroke-miterlimit:10;}.cls-3{opacity:0.32;}.cls-11,.cls-3,.cls-5{mix-blend-mode:color-dodge;}.cls-4{fill:#4879c1;}.cls-5{opacity:0.71;}.cls-6{opacity:0.97;}.cls-12,.cls-6,.cls-9{mix-blend-mode:overlay;}.cls-7{fill:#fff;}.cls-8{fill:none;stroke:#fff;}.cls-10{fill:#4197e5;}.cls-11{opacity:0.67;}.cls-12{opacity:0.49;fill:url(#무제_그라디언트_41);}</style><linearGradient id="무제_그라디언트_34" x1="446.1" y1="-277.79" x2="1057.85" y2="781.79" gradientUnits="userSpaceOnUse"><stop offset="0" stop-color="#0078ff"/><stop offset="1" stop-color="#8933ff"/></linearGradient><linearGradient id="무제_그라디언트_41" x1="742.43" y1="532.66" x2="742.43" y2="-22.49" gradientUnits="userSpaceOnUse"><stop offset="0" stop-color="#c2f300"/><stop offset="1" stop-color="#303c87" stop-opacity="0"/></linearGradient></defs><g class="cls-1"><g id="레이어_1" data-name="레이어 1"><rect class="cls-2" x="-12.52" y="-13" width="1528.99" height="530"/><g class="cls-3"><path class="cls-4" d="M1497.78,384.8s11.76-49.16-56.61-116.64C1441.17,268.16,1447.68,345.79,1497.78,384.8Z"/><path class="cls-4" d="M1501.44,371.2s45-22.95,52-118.76C1553.46,252.44,1498.62,307.76,1501.44,371.2Z"/><path class="cls-4" d="M1497.88,386.72s50,7.07,110.78-67.35C1608.66,319.37,1532,333.16,1497.88,386.72Z"/><path class="cls-4" d="M1488.17,404.39s45.18,22.66,126.48-28.52C1614.65,375.87,1537.58,364.5,1488.17,404.39Z"/><path class="cls-4" d="M1479.26,436.07s45.18,22.66,126.48-28.51C1605.74,407.56,1528.67,396.19,1479.26,436.07Z"/><path class="cls-4" d="M1487.27,405.73s0-50.55-82.14-100.32C1405.13,305.41,1429.48,379.41,1487.27,405.73Z"/><path class="cls-4" d="M1477.86,436.24s-7-50.05-95.28-87.93C1382.58,348.31,1417,418.21,1477.86,436.24Z"/><path class="cls-4" d="M1467.48,471.08s-15.24-48.2-108.6-70.83C1358.88,400.25,1404.44,463.44,1467.48,471.08Z"/><path class="cls-4" d="M1462.43,492.13s-27.51-42.4-123.52-39.38C1338.91,452.75,1399.63,501.54,1462.43,492.13Z"/><path class="cls-4" d="M1459.41,509.1s-32.69-38.55-127.53-23.32C1331.88,485.78,1398.33,526.44,1459.41,509.1Z"/><path class="cls-4" d="M1468.73,464.52s37.75-33.61,129.55-5.31C1598.28,459.21,1526.81,490.21,1468.73,464.52Z"/><path class="cls-4" d="M1465.13,487.72s45.32-22.36,126.28,29.34C1591.41,517.06,1514.27,527.93,1465.13,487.72Z"/><path class="cls-4" d="M1461,509.55s47.81-16.41,121.52,45.19C1582.48,554.74,1504.59,555.69,1461,509.55Z"/><path class="cls-4" d="M1540.51,278.3c-6.08,13-11.78,26.24-17.29,39.52s-10.79,26.67-15.83,40.13-9.92,27-14.52,40.59S1484,425.88,1480,439.67s-7.52,27.71-10.69,41.69L1467,491.85l-2.13,10.53c-.77,3.5-1.37,7-2,10.55s-1.36,7-1.88,10.57-1.2,7.06-1.73,10.6l-1.43,10.63c-.28,1.77-.44,3.55-.62,5.33l-.56,5.34c-.17,1.78-.41,3.56-.52,5.34l-.38,5.35-.37,5.36c-.15,1.78-.12,3.57-.2,5.36l-.17,5.37-.09,2.69c0,.89,0,1.78,0,2.68.06,3.58,0,7.17.17,10.75s.49,7.16.69,10.76l-.5.07a212.42,212.42,0,0,1-3.08-43.2,336.16,336.16,0,0,1,3.81-43.21q3.23-21.47,8.51-42.5c.82-3.52,1.82-7,2.72-10.49s1.85-7,2.86-10.44l3-10.4,3.13-10.36q6.38-20.67,13.61-41T1505.06,357q8-20,16.78-39.81c5.83-13.16,11.83-26.25,18.22-39.15Z"/></g><g class="cls-3"><path class="cls-4" d="M1043.92,485.14s-42.35-27.58-128.87,14.17C915.05,499.31,990.36,519.23,1043.92,485.14Z"/><path class="cls-4" d="M1032.34,477.12s-6.5-50.13-94.4-88.87C937.94,388.25,971.64,458.49,1032.34,477.12Z"/><path class="cls-4" d="M1045.77,485.69s23.46-44.77-26.26-127C1019.51,358.72,1006.77,435.57,1045.77,485.69Z"/><path class="cls-4" d="M1059.15,500.76s36.51-34.95,15.6-128.71C1074.75,372.05,1038.17,440.83,1059.15,500.76Z"/><path class="cls-4" d="M1086,519.79s36.51-34.95,15.59-128.71C1101.6,391.08,1065,459.86,1086,519.79Z"/><path class="cls-4" d="M1060.11,502.06s-47.6-17-122.07,43.7C938,545.76,1015.92,547.66,1060.11,502.06Z"/><path class="cls-4" d="M1109.28,539.26s-19-46.84,38.47-123.81C1147.75,415.45,1153,493.17,1109.28,539.26Z"/><path class="cls-4" d="M1129.91,550.44s-5.85-50.2,70-109.11C1200,441.33,1184.28,517.64,1129.91,550.44Z"/><path class="cls-4" d="M1149.08,561.69s.59-50.54,83.36-99.3C1232.44,462.39,1207.18,536.09,1149.08,561.69Z"/><path class="cls-4" d="M1161.73,569.05s15.91-48,109.57-69.31C1271.3,499.74,1224.87,562.29,1161.73,569.05Z"/><path class="cls-4" d="M958,409.13c10.23,10.11,20.77,19.91,31.43,29.56s21.49,19.11,32.48,28.38,22.08,18.4,33.36,27.3,22.78,17.52,34.43,25.91,23.58,16.38,35.68,24.07l9.1,5.73,9.2,5.54c3,1.91,6.17,3.65,9.26,5.45s6.16,3.65,9.32,5.33,6.25,3.49,9.4,5.18l9.54,4.92c1.58.85,3.2,1.6,4.81,2.38l4.84,2.31c1.62.76,3.22,1.58,4.86,2.28l4.92,2.16,4.92,2.15c1.63.74,3.32,1.31,5,2l5,2,2.5,1c.84.31,1.7.57,2.54.87,3.39,1.14,6.76,2.39,10.19,3.44s6.9,2,10.36,3l-.1.49a212.66,212.66,0,0,1-41.72-11.6,335,335,0,0,1-39.43-18.09q-19.12-10.24-37.18-22.29c-3-2-6-4.06-9-6.08s-6-4.08-8.88-6.2l-8.8-6.29-8.71-6.42q-17.32-12.94-34.1-26.6t-33-28q-16.2-14.31-31.87-29.17c-10.45-9.91-20.76-20-30.77-30.31Z"/></g><g class="cls-3"><path class="cls-4" d="M701.08,522.05s37.52-33.87,19.36-128.2C720.44,393.85,681.86,461.53,701.08,522.05Z"/><path class="cls-4" d="M711.8,512.91s50.12,6.57,110.11-68.46C821.91,444.45,745.38,459,711.8,512.91Z"/><path class="cls-4" d="M680.57,533.35s28.64-41.65-10.93-129.19C669.64,404.16,647.83,479,680.57,533.35Z"/><path class="cls-4" d="M655.54,553.19S678.11,508,626.77,426.77C626.77,426.77,615.56,503.86,655.54,553.19Z"/><path class="cls-4" d="M627.27,576S642,527.67,577.83,456.17C577.83,456.17,579.62,534.05,627.27,576Z"/><path class="cls-4" d="M611.19,590.53s1.32-50.53-79.54-102.39C531.65,488.14,554.1,562.74,611.19,590.53Z"/><path class="cls-4" d="M796.6,458.44c-12.39,7.3-24.57,15-36.63,22.8s-24,15.87-35.76,24.12-23.46,16.62-35,25.24-22.77,17.53-33.87,26.64S633.51,575.82,623,585.55l-7.88,7.32-7.72,7.48c-2.61,2.44-5.1,5-7.64,7.54s-5.1,5-7.53,7.65-5,5.15-7.43,7.76l-7.2,8c-1.23,1.3-2.37,2.68-3.53,4l-3.48,4.08c-1.14,1.38-2.34,2.71-3.45,4.11l-3.34,4.2-3.34,4.2c-1.13,1.39-2.12,2.88-3.2,4.31l-3.18,4.33-1.59,2.17c-.51.73-1,1.49-1.49,2.23-2,3-4,5.92-5.94,9s-3.65,6.18-5.52,9.26l-.45-.23A212.71,212.71,0,0,1,561,645.57a337.66,337.66,0,0,1,27.61-33.47q14.79-15.86,31.07-30.22c2.67-2.43,5.45-4.73,8.18-7.1s5.47-4.71,8.26-7l8.34-6.9,8.44-6.76q17-13.44,34.46-26.14t35.47-24.7q18-12,36.36-23.32c12.26-7.55,24.62-15,37.19-22Z"/></g><g class="cls-3"><path class="cls-4" d="M294.41,554.43S283,505.18,191.72,475.28C191.72,475.28,232.17,541.86,294.41,554.43Z"/><path class="cls-4" d="M308.62,561.63S327.56,514.77,270,437.86C270,437.86,264.88,515.6,308.62,561.63Z"/><path class="cls-4" d="M323.42,575.32s32.89-38.38,2.85-129.62C326.27,445.7,296.64,517.74,323.42,575.32Z"/><path class="cls-4" d="M352,591.61s32.89-38.37,2.85-129.62C354.87,462,325.24,534,352,591.61Z"/><path class="cls-4" d="M377.09,608.7S353.57,564,403.2,481.7C403.2,481.7,416,558.54,377.09,608.7Z"/><path class="cls-4" d="M398.72,617.79s-10.76-49.38,59-115.47C457.68,502.32,449.6,579.81,398.72,617.79Z"/><path class="cls-4" d="M213.69,494.09c11.18,9.05,22.63,17.76,34.18,26.32s23.28,16.9,35.12,25.05,23.79,16.14,35.89,23.89,24.39,15.18,36.81,22.39,25.07,14,37.88,20.44l9.61,4.81,9.71,4.61c3.2,1.6,6.49,3,9.74,4.52s6.5,3,9.81,4.38,6.56,2.86,9.86,4.23l10,4c1.65.69,3.34,1.28,5,1.89l5,1.83c1.69.59,3.36,1.25,5.06,1.79l5.1,1.66,5.11,1.66c1.7.57,3.44,1,5.16,1.49l5.16,1.46,2.59.73c.87.22,1.74.4,2.61.61,3.49.8,7,1.71,10.48,2.42s7.06,1.26,10.6,1.94l-.05.49a212.15,212.15,0,0,1-42.66-7.43,334.91,334.91,0,0,1-41-14.13q-20-8.31-39.19-18.52c-3.21-1.65-6.34-3.45-9.51-5.17s-6.33-3.48-9.44-5.29l-9.39-5.4-9.29-5.53Q335.14,584,317.11,572.07T281.55,547.5Q264,534.86,247,521.61c-11.37-8.84-22.62-17.82-33.6-27.14Z"/></g><g class="cls-5"><path class="cls-4" d="M886.77,501.55S844.15,474.38,758,517C758,517,833.53,536.16,886.77,501.55Z"/><path class="cls-4" d="M875.11,493.64s-7-50.06-95.25-88C779.86,405.68,814.23,475.59,875.11,493.64Z"/><path class="cls-4" d="M888.62,502.08s23-45-27.47-126.71C861.15,375.37,849.14,452.34,888.62,502.08Z"/><path class="cls-4" d="M902.15,517s36.17-35.3,14.36-128.85C916.51,388.17,880.59,457.3,902.15,517Z"/><path class="cls-4" d="M929.18,535.79s36.18-35.3,14.36-128.85C943.54,406.94,907.63,476.07,929.18,535.79Z"/><path class="cls-4" d="M952.64,555s-19.45-46.66,37.29-124.18C989.93,430.86,995.88,508.54,952.64,555Z"/><path class="cls-4" d="M973.38,566s-6.33-50.14,69-109.78C1042.36,456.24,1027.44,532.7,973.38,566Z"/><path class="cls-4" d="M992.65,577.09s.11-50.54,82.41-100.1C1075.06,477,1050.51,550.93,992.65,577.09Z"/><path class="cls-4" d="M800.07,426.37c10.33,10,21,19.7,31.71,29.25s21.68,18.91,32.75,28.07,22.26,18.19,33.63,27,22.94,17.3,34.67,25.58,23.74,16.16,35.91,23.72l9.15,5.65,9.26,5.45c3.05,1.88,6.2,3.59,9.31,5.37s6.2,3.58,9.37,5.23,6.28,3.43,9.45,5.09l9.59,4.83c1.58.84,3.21,1.57,4.83,2.33l4.86,2.27c1.63.74,3.24,1.54,4.88,2.23l4.94,2.11,4.94,2.1c1.64.73,3.34,1.28,5,1.94l5,1.92,2.51,1c.84.31,1.7.56,2.55.85,3.4,1.11,6.78,2.32,10.22,3.34s6.92,1.89,10.39,2.87l-.1.49a212.68,212.68,0,0,1-41.83-11.19,335.79,335.79,0,0,1-39.6-17.72Q984.25,576,966.09,564.15c-3.06-1.92-6-4-9-6s-6-4-8.93-6.11l-8.87-6.21-8.77-6.34q-17.44-12.78-34.35-26.27T862.92,485.6q-16.33-14.16-32.15-28.87c-10.54-9.81-20.95-19.75-31.06-30Z"/></g><g class="cls-6"><path class="cls-7" d="M1253.55,417.86s-51.83-50.65-185.17-16.2C1068.38,401.66,1168.68,450.79,1253.55,417.86Z"/><path class="cls-7" d="M1239.51,403.34s4.91-72.3-107.83-151.4C1131.68,251.94,1159.39,360.13,1239.51,403.34Z"/><path class="cls-7" d="M1256,419.15s45.53-56.38-1.34-185.88C1254.65,233.27,1215.2,337.76,1256,419.15Z"/><path class="cls-7" d="M1270.58,444.09s61.13-38.91,58-176.59C1328.58,267.5,1257.87,354,1270.58,444.09Z"/><path class="cls-7" d="M1303,478.37s61.13-38.91,58-176.59C1361,301.78,1290.3,388.23,1303,478.37Z"/><path class="cls-7" d="M1271.57,446.19S1209.4,409,1087.69,473.42C1087.69,473.42,1196.66,497.92,1271.57,446.19Z"/><path class="cls-7" d="M1302.19,480.23s-66.74-28.24-178.31,52.51C1123.88,532.74,1235.19,541.86,1302.19,480.23Z"/><path class="cls-7" d="M1330.27,512.27s-13.58-71.18,88.8-163.3C1419.07,349,1404.61,459.71,1330.27,512.27Z"/><path class="cls-7" d="M1356.15,533.77s5.85-72.22,129-133.78C1485.2,400,1441.79,502.89,1356.15,533.77Z"/><path class="cls-7" d="M1379.94,555s15-70.9,145-116.26C1525,438.71,1468.82,535.25,1379.94,555Z"/><path class="cls-7" d="M1395.68,568.85s35.81-63,173.48-66.74C1569.16,502.11,1486.34,577,1395.68,568.85Z"/><path class="cls-8" d="M1153.67,287.09s181.1,278.62,344.75,347.83"/></g><g class="cls-9"><path class="cls-10" d="M1105.37-6.39s-66.93,23.09-86.82,134.73C1018.55,128.34,1102.89,68.15,1105.37-6.39Z"/><path class="cls-10" d="M1086.5-.39S1021.56-27,904.67,33.06C904.67,33.06,1015.46,46.43,1086.5-.39Z"/><path class="cls-10" d="M1138.56-11S1080,24.13,1092.38,136.5C1092.38,136.5,1157.32,62,1138.56-11Z"/><path class="cls-10" d="M1181.91-23.36s-52,41.46-20.64,151.33C1161.27,128,1212.9,46.79,1181.91-23.36Z"/><path class="cls-10" d="M1231.09-37.78s-42.82,48,10.51,152C1241.6,114.24,1276,27.16,1231.09-37.78Z"/><path class="cls-10" d="M1259.77-47.66s-25.66,55.53,59.64,144.25C1319.41,96.59,1324.16,5.19,1259.77-47.66Z"/><path class="cls-10" d="M1282-56.62S1265.2,1.13,1363.64,80.25C1363.64,80.25,1354.1-10.9,1282-56.62Z"/><path class="cls-10" d="M1300.06-64.56s5.46,59.19,128.66,110.16C1428.72,45.6,1385.76-38.88,1300.06-64.56Z"/><path class="cls-10" d="M945.67,27.35c19.88-3.22,39.68-6.93,59.43-10.85s39.44-8.15,59.06-12.63,39.21-9.15,58.69-14.21,38.88-10.43,58.16-16.14,38.4-12,57.38-18.6c9.46-3.39,18.94-6.72,28.31-10.34l7.07-2.62c2.35-.86,4.67-1.83,7-2.74,4.66-1.87,9.35-3.67,14-5.59l13.9-5.81c4.63-1.94,9.15-4.1,13.75-6.12,2.28-1,4.61-2,6.85-3.11l6.78-3.28,6.78-3.27c2.27-1.07,4.46-2.29,6.69-3.43l6.68-3.48,3.34-1.74,3.27-1.87,6.53-3.74,3.26-1.88,1.64-.93,1.59-1c4.24-2.67,8.52-5.31,12.75-8q6.14-4.35,12.36-8.66l.31.39q-5.88,4.75-11.83,9.45c-4.09,3-8.24,5.85-12.36,8.78l-1.56,1.08-1.6,1-3.21,2-6.42,4L1361-94l-3.29,1.88-6.58,3.77a560.29,560.29,0,0,1-54.48,26.56c-4.66,2-9.36,3.81-14,5.72-2.34.93-4.67,1.92-7,2.8l-7.09,2.68c-9.43,3.62-19,6.83-28.53,10.16q-28.76,9.51-57.87,17.76T1123.65-7.19q-29.37,7.23-59,13.5T1005.38,18c-19.83,3.6-39.69,7-59.63,9.87Z"/></g><g class="cls-11"><path class="cls-10" d="M1539.33,116.91s-48.44,31.64-49.15,157.2C1490.18,274.11,1547.16,199.78,1539.33,116.91Z"/><path class="cls-10" d="M1535.41,90.78s-55.12,11.47-90,128.67C1445.44,219.45,1520.37,171.23,1535.41,90.78Z"/><path class="cls-10" d="M1521,50.56S1465.85,62,1431,179.22C1431,179.22,1505.94,131,1521,50.56Z"/><path class="cls-10" d="M1506.72,4.61s47,38.7,143.94-10.4C1650.66-5.79,1566.85-36.58,1506.72,4.61Z"/><path class="cls-10" d="M1510.21,12.47s-9.27,64.76-108.86,106.69C1401.35,119.16,1441.77,30.83,1510.21,12.47Z"/><path class="cls-10" d="M1497.12-14.71s-23.75,58.87-130.29,67.77C1366.83,53.06,1426.27-18.56,1497.12-14.71Z"/><path class="cls-10" d="M1485.46-40.88s-30.06,54.54-137.23,47.4C1348.23,6.52,1415.26-55.28,1485.46-40.88Z"/><path class="cls-10" d="M1578.17,264c-3.76-18.21-8-36.33-12.42-54.39s-9.14-36-14.1-54-10.1-35.79-15.57-53.55-11.29-35.41-17.39-52.95S1506,14.28,1499-2.92l-5.3-12.87c-1.73-4.3-3.69-8.51-5.48-12.79L1485.5-35l-2.86-6.34-2.86-6.34c-1-2.11-1.89-4.23-2.91-6.31l-5.95-12.56c-2-4.16-4.19-8.27-6.26-12.41s-4.3-8.21-6.49-12.29l-3.31-6.11c-1.13-2-2.32-4-3.48-6-4.57-8.07-9.54-15.89-14.62-23.64-2.65-3.81-5.24-7.66-7.94-11.44s-5.66-7.34-8.47-11.06l.37-.32c12.74,13.62,23.75,28.83,33.67,44.64a507,507,0,0,1,27,49.06c1,2.09,2,4.21,3,6.33l2.92,6.36,2.92,6.36,2.78,6.42,2.74,6.44c.92,2.14,1.82,4.29,2.67,6.46l5.2,13q10,26.13,18.87,52.63t16.72,53.32q7.88,26.79,14.87,53.83t13.15,54.27c4.11,18.15,8,36.34,11.46,54.63Z"/></g><rect class="cls-12" x="-51.85" y="-22.49" width="1588.56" height="555.15"/></g></g></svg>