<svg xmlns="http://www.w3.org/2000/svg" xmlns:xlink="http://www.w3.org/1999/xlink" viewBox="0 0 1508.23 508"><defs><style>.cls-1{isolation:isolate;}.cls-2{stroke:#251e1c;fill:url(#무제_그라디언트_21);}.cls-2,.cls-8{stroke-miterlimit:10;}.cls-3,.cls-5{opacity:0.32;}.cls-10,.cls-3{mix-blend-mode:color-dodge;}.cls-4{fill:#4879c1;}.cls-11,.cls-5,.cls-6,.cls-9{mix-blend-mode:overlay;}.cls-6{opacity:0.71;}.cls-7{fill:#4197e5;}.cls-8{fill:none;stroke:#4197e5;}.cls-10{opacity:0.67;}.cls-11{opacity:0.49;fill:url(#무제_그라디언트_41);}</style><linearGradient id="무제_그라디언트_21" x1="1057.85" y1="781.79" x2="446.1" y2="-277.79" gradientUnits="userSpaceOnUse"><stop offset="0" stop-color="#d57fa3"/><stop offset="1" stop-color="#8933ff"/></linearGradient><linearGradient id="무제_그라디언트_41" x1="742.43" y1="532.66" x2="742.43" y2="-22.49" gradientUnits="userSpaceOnUse"><stop offset="0" stop-color="#c2f300"/><stop offset="1" stop-color="#303c87" stop-opacity="0"/></linearGradient></defs><g class="cls-1"><g id="레이어_1" data-name="레이어 1"><rect class="cls-2" x="-12.52" y="-13" width="1528.99" height="530"/><g class="cls-3"><path class="cls-4" d="M1497.78,377s11.76-49.16-56.61-116.64C1441.17,260.34,1447.68,338,1497.78,377Z"/><path class="cls-4" d="M1501.44,363.38s45-22.95,52-118.76C1553.46,244.62,1498.62,299.94,1501.44,363.38Z"/><path class="cls-4" d="M1497.88,378.9s50,7.07,110.78-67.35C1608.66,311.55,1532,325.34,1497.88,378.9Z"/><path class="cls-4" d="M1488.17,396.57s45.18,22.66,126.48-28.52C1614.65,368.05,1537.58,356.68,1488.17,396.57Z"/><path class="cls-4" d="M1479.26,428.25s45.18,22.66,126.48-28.51C1605.74,399.74,1528.67,388.37,1479.26,428.25Z"/><path class="cls-4" d="M1487.27,397.91s0-50.55-82.14-100.32C1405.13,297.59,1429.48,371.59,1487.27,397.91Z"/><path class="cls-4" d="M1477.86,428.42s-7-50.05-95.28-87.93C1382.58,340.49,1417,410.39,1477.86,428.42Z"/><path class="cls-4" d="M1467.48,463.26s-15.24-48.19-108.6-70.83C1358.88,392.43,1404.44,455.62,1467.48,463.26Z"/><path class="cls-4" d="M1462.43,484.31s-27.51-42.4-123.52-39.38C1338.91,444.93,1399.63,493.72,1462.43,484.31Z"/><path class="cls-4" d="M1459.41,501.28s-32.69-38.55-127.53-23.32C1331.88,478,1398.33,518.62,1459.41,501.28Z"/><path class="cls-4" d="M1457.41,515.42s-42.85-26.81-128.6,16.49C1328.81,531.91,1404.47,550.47,1457.41,515.42Z"/><path class="cls-4" d="M1468.73,456.71s37.75-33.62,129.55-5.32C1598.28,451.39,1526.81,482.39,1468.73,456.71Z"/><path class="cls-4" d="M1465.13,479.9s45.32-22.36,126.28,29.34C1591.41,509.24,1514.27,520.11,1465.13,479.9Z"/><path class="cls-4" d="M1461,501.73s47.81-16.41,121.52,45.19C1582.48,546.92,1504.59,547.87,1461,501.73Z"/><path class="cls-4" d="M1540.51,270.48c-6.08,13-11.78,26.24-17.29,39.52s-10.79,26.67-15.83,40.13-9.92,27-14.52,40.59S1484,418.06,1480,431.85s-7.52,27.71-10.69,41.69L1467,484l-2.13,10.53c-.77,3.5-1.37,7-2,10.55s-1.36,7-1.88,10.57-1.2,7.06-1.73,10.6l-1.43,10.63c-.28,1.77-.44,3.55-.62,5.33l-.56,5.34c-.17,1.78-.41,3.56-.52,5.34l-.38,5.35-.37,5.36c-.15,1.79-.12,3.57-.2,5.36l-.17,5.37-.09,2.69c0,.89,0,1.78,0,2.68.06,3.58,0,7.17.17,10.75s.49,7.16.69,10.76l-.5.07a212.33,212.33,0,0,1-3.08-43.19A336.16,336.16,0,0,1,1456,514.9q3.23-21.45,8.51-42.5c.82-3.52,1.82-7,2.72-10.48s1.85-7,2.86-10.45l3-10.4,3.13-10.36q6.38-20.67,13.61-41t15.26-40.43q8-20.06,16.78-39.82c5.83-13.16,11.83-26.25,18.22-39.15Z"/></g><g class="cls-3"><path class="cls-4" d="M1043.92,477.32s-42.35-27.58-128.87,14.17C915.05,491.49,990.36,511.42,1043.92,477.32Z"/><path class="cls-4" d="M1032.34,469.3s-6.5-50.12-94.4-88.86C937.94,380.44,971.64,450.67,1032.34,469.3Z"/><path class="cls-4" d="M1045.77,477.87s23.46-44.77-26.26-127C1019.51,350.9,1006.77,427.75,1045.77,477.87Z"/><path class="cls-4" d="M1059.15,492.94s36.51-34.95,15.6-128.71C1074.75,364.23,1038.17,433,1059.15,492.94Z"/><path class="cls-4" d="M1086,512s36.51-35,15.59-128.71C1101.6,383.26,1065,452,1086,512Z"/><path class="cls-4" d="M1060.11,494.24s-47.6-17-122.07,43.7C938,537.94,1015.92,539.84,1060.11,494.24Z"/><path class="cls-4" d="M1109.28,531.44s-19-46.84,38.47-123.81C1147.75,407.63,1153,485.36,1109.28,531.44Z"/><path class="cls-4" d="M1129.91,542.62s-5.85-50.2,70-109.11C1200,433.51,1184.28,509.82,1129.91,542.62Z"/><path class="cls-4" d="M1149.08,553.87s.59-50.54,83.36-99.3C1232.44,454.57,1207.18,528.27,1149.08,553.87Z"/><path class="cls-4" d="M1161.73,561.23s15.91-48,109.57-69.31C1271.3,491.92,1224.87,554.47,1161.73,561.23Z"/><path class="cls-4" d="M958,401.31c10.23,10.11,20.77,19.91,31.43,29.56s21.49,19.11,32.48,28.38,22.08,18.4,33.36,27.31,22.78,17.51,34.43,25.9,23.58,16.38,35.68,24.07l9.1,5.73,9.2,5.55c3,1.9,6.17,3.64,9.26,5.45s6.16,3.64,9.32,5.32,6.25,3.49,9.4,5.18l9.54,4.92c1.58.85,3.2,1.6,4.81,2.38l4.84,2.31c1.62.76,3.22,1.58,4.86,2.29l4.92,2.15,4.92,2.15c1.63.74,3.32,1.31,5,2l5,2,2.5,1c.84.31,1.7.57,2.54.87,3.39,1.14,6.76,2.39,10.19,3.44s6.9,1.95,10.36,3l-.1.49a212,212,0,0,1-41.72-11.6A335,335,0,0,1,1159.82,563q-19.12-10.25-37.18-22.29c-3-1.95-6-4.06-9-6.08s-6-4.08-8.88-6.2l-8.8-6.29-8.71-6.42q-17.32-12.95-34.1-26.6t-33-27.95Q1004,446.83,988.36,432c-10.45-9.91-20.76-20-30.77-30.31Z"/></g><g class="cls-3"><path class="cls-4" d="M701.08,514.23S738.6,480.36,720.44,386C720.44,386,681.86,453.71,701.08,514.23Z"/><path class="cls-4" d="M711.8,505.09s50.12,6.57,110.11-68.46C821.91,436.63,745.38,451.2,711.8,505.09Z"/><path class="cls-4" d="M700.08,515.87s37.26,34.16,129.45,7.19C829.53,523.06,758.52,491,700.08,515.87Z"/><path class="cls-4" d="M680.57,525.54s28.64-41.66-10.93-129.19C669.64,396.35,647.83,471.13,680.57,525.54Z"/><path class="cls-4" d="M655.54,545.37S678.11,500.14,626.77,419C626.77,419,615.56,496,655.54,545.37Z"/><path class="cls-4" d="M627.27,568.21S642,519.85,577.83,448.35C577.83,448.35,579.62,526.23,627.27,568.21Z"/><path class="cls-4" d="M611.19,582.71s1.32-50.53-79.54-102.39C531.65,480.32,554.1,554.92,611.19,582.71Z"/><path class="cls-4" d="M599.1,595s-5.13-50.28-91.94-91.42C507.16,503.57,538.93,574.7,599.1,595Z"/><path class="cls-4" d="M796.6,450.62c-12.39,7.3-24.57,15-36.63,22.8s-24,15.87-35.76,24.12-23.46,16.62-35,25.24-22.77,17.53-33.87,26.64S633.51,568,623,577.73l-7.88,7.32-7.72,7.48c-2.61,2.44-5.1,5-7.64,7.55s-5.1,5-7.53,7.64-5,5.15-7.43,7.76l-7.2,8c-1.23,1.3-2.37,2.68-3.53,4l-3.48,4.09c-1.14,1.37-2.34,2.7-3.45,4.1l-3.34,4.2-3.34,4.2c-1.13,1.39-2.12,2.88-3.2,4.31l-3.18,4.33-1.59,2.17c-.51.73-1,1.49-1.49,2.23-2,3-4,5.92-5.94,9s-3.65,6.17-5.52,9.25l-.45-.22A212.43,212.43,0,0,1,561,637.75a337.66,337.66,0,0,1,27.61-33.47q14.79-15.85,31.07-30.22c2.67-2.43,5.45-4.73,8.18-7.1s5.47-4.7,8.26-7l8.34-6.9,8.44-6.76q17-13.44,34.46-26.14t35.47-24.7q18-12,36.36-23.32c12.26-7.55,24.62-14.95,37.19-22Z"/></g><g class="cls-5"><path class="cls-4" d="M294.41,546.61S283,497.37,191.72,467.46C191.72,467.46,232.17,534,294.41,546.61Z"/><path class="cls-4" d="M308.62,553.81S327.56,507,270,430.05C270,430.05,264.88,507.78,308.62,553.81Z"/><path class="cls-4" d="M323.42,567.5s32.89-38.37,2.85-129.62C326.27,437.88,296.64,509.92,323.42,567.5Z"/><path class="cls-4" d="M352,583.79s32.89-38.37,2.85-129.62C354.87,454.17,325.24,526.22,352,583.79Z"/><path class="cls-4" d="M377.09,600.88s-23.52-44.75,26.11-127C403.2,473.88,416,550.72,377.09,600.88Z"/><path class="cls-4" d="M398.72,610s-10.76-49.39,59-115.47C457.68,494.51,449.6,572,398.72,610Z"/><path class="cls-4" d="M213.69,486.27c11.18,9.05,22.63,17.76,34.18,26.32s23.28,16.9,35.12,25,23.79,16.14,35.89,23.89,24.39,15.19,36.81,22.39,25.07,14,37.88,20.44l9.61,4.81,9.71,4.61c3.2,1.6,6.49,3,9.74,4.52s6.5,3,9.81,4.38,6.56,2.86,9.86,4.23l10,4c1.65.69,3.34,1.28,5,1.89l5,1.83c1.69.59,3.36,1.25,5.06,1.79l5.1,1.66,5.11,1.66c1.7.57,3.44,1,5.16,1.49l5.16,1.46,2.59.73c.87.22,1.74.4,2.61.61,3.49.8,7,1.71,10.48,2.42s7.06,1.26,10.6,1.94l-.05.49a212.15,212.15,0,0,1-42.66-7.43,334.91,334.91,0,0,1-41-14.13q-20-8.31-39.19-18.52c-3.21-1.64-6.34-3.45-9.51-5.17s-6.33-3.48-9.44-5.29L363,592.9l-9.29-5.53q-18.53-11.19-36.55-23.12t-35.56-24.57Q264,527,247,513.79C235.6,505,224.35,496,213.37,486.65Z"/></g><g class="cls-6"><path class="cls-4" d="M886.77,493.73S844.15,466.56,758,509.13C758,509.13,833.53,528.34,886.77,493.73Z"/><path class="cls-4" d="M875.11,485.82s-7-50.06-95.25-87.95C779.86,397.87,814.23,467.77,875.11,485.82Z"/><path class="cls-4" d="M888.62,494.26s23-45-27.47-126.71C861.15,367.55,849.14,444.52,888.62,494.26Z"/><path class="cls-4" d="M902.15,509.21s36.17-35.3,14.36-128.86C916.51,380.35,880.59,449.48,902.15,509.21Z"/><path class="cls-4" d="M929.18,528s36.18-35.3,14.36-128.85C943.54,399.12,907.63,468.25,929.18,528Z"/><path class="cls-4" d="M952.64,547.22S933.19,500.56,989.93,423C989.93,423,995.88,500.72,952.64,547.22Z"/><path class="cls-4" d="M973.38,558.2s-6.33-50.14,69-109.77C1042.36,448.43,1027.44,524.88,973.38,558.2Z"/><path class="cls-4" d="M992.65,569.27s.11-50.54,82.41-100.09C1075.06,469.18,1050.51,543.11,992.65,569.27Z"/><path class="cls-4" d="M1005.38,576.5s15.44-48.12,108.9-70.35C1114.28,506.15,1068.45,569.14,1005.38,576.5Z"/><path class="cls-4" d="M800.07,418.55c10.33,10,21,19.7,31.71,29.25s21.68,18.91,32.75,28.07,22.26,18.19,33.63,27,22.94,17.29,34.67,25.57,23.74,16.16,35.91,23.72l9.15,5.65,9.26,5.45c3.05,1.88,6.2,3.59,9.31,5.37s6.2,3.58,9.37,5.23,6.28,3.43,9.45,5.09l9.59,4.83c1.58.84,3.21,1.57,4.83,2.33l4.86,2.27c1.63.74,3.24,1.54,4.88,2.23l4.94,2.11,4.94,2.1c1.64.73,3.34,1.28,5,2l5,1.91,2.51,1c.84.3,1.7.55,2.55.84,3.4,1.11,6.78,2.32,10.22,3.34s6.92,1.89,10.39,2.87l-.1.49A212.68,212.68,0,0,1,1043.08,596a335.79,335.79,0,0,1-39.6-17.72q-19.23-10.05-37.39-21.93c-3.06-1.92-6-4-9-6s-6-4-8.93-6.11L939.27,538l-8.77-6.34q-17.44-12.78-34.35-26.27t-33.23-27.63q-16.33-14.16-32.15-28.86c-10.54-9.82-20.95-19.76-31.06-30Z"/></g><path class="cls-7" d="M1253.55,410s-51.83-50.65-185.17-16.19C1068.38,393.85,1168.68,443,1253.55,410Z"/><path class="cls-7" d="M1239.51,395.52s4.91-72.3-107.83-151.4C1131.68,244.12,1159.39,352.31,1239.51,395.52Z"/><path class="cls-7" d="M1256,411.33s45.53-56.37-1.34-185.88C1254.65,225.45,1215.2,329.94,1256,411.33Z"/><path class="cls-7" d="M1270.58,436.28s61.13-38.92,58-176.6C1328.58,259.68,1257.87,346.13,1270.58,436.28Z"/><path class="cls-7" d="M1303,470.55s61.13-38.91,58-176.59C1361,294,1290.3,380.41,1303,470.55Z"/><path class="cls-7" d="M1271.57,438.37s-62.17-37.23-183.88,27.23C1087.69,465.6,1196.66,490.1,1271.57,438.37Z"/><path class="cls-7" d="M1302.19,472.41s-66.74-28.24-178.31,52.51C1123.88,524.92,1235.19,534,1302.19,472.41Z"/><path class="cls-7" d="M1330.27,504.45s-13.58-71.18,88.8-163.3C1419.07,341.15,1404.61,451.9,1330.27,504.45Z"/><path class="cls-7" d="M1356.15,526s5.85-72.22,129-133.78C1485.2,392.17,1441.79,495.07,1356.15,526Z"/><path class="cls-7" d="M1379.94,547.15s15-70.9,145-116.26C1525,430.89,1468.82,527.43,1379.94,547.15Z"/><path class="cls-7" d="M1395.68,561s35.81-63,173.48-66.74C1569.16,494.29,1486.34,569.22,1395.68,561Z"/><path class="cls-8" d="M1153.67,279.27s181.1,278.62,344.75,347.83"/><g class="cls-9"><path class="cls-7" d="M1105.37-14.21s-66.93,23.09-86.82,134.73C1018.55,120.52,1102.89,60.33,1105.37-14.21Z"/><path class="cls-7" d="M1086.5-8.21s-64.94-26.63-181.83,33.45C904.67,25.24,1015.46,38.61,1086.5-8.21Z"/><path class="cls-7" d="M1138.56-18.84S1080,16.32,1092.38,128.68C1092.38,128.68,1157.32,54.14,1138.56-18.84Z"/><path class="cls-7" d="M1181.91-31.18s-52,41.46-20.64,151.33C1161.27,120.15,1212.9,39,1181.91-31.18Z"/><path class="cls-7" d="M1231.09-45.6s-42.82,48,10.51,152C1241.6,106.42,1276,19.34,1231.09-45.6Z"/><path class="cls-7" d="M1259.77-55.48S1234.11.05,1319.41,88.77C1319.41,88.77,1324.16-2.63,1259.77-55.48Z"/><path class="cls-7" d="M1282-64.44S1265.2-6.69,1363.64,72.43C1363.64,72.43,1354.1-18.72,1282-64.44Z"/><path class="cls-7" d="M1300.06-72.38s5.46,59.19,128.66,110.16C1428.72,37.78,1385.76-46.7,1300.06-72.38Z"/><path class="cls-7" d="M945.67,19.53c19.88-3.22,39.68-6.93,59.43-10.85s39.44-8.15,59.06-12.63,39.21-9.15,58.69-14.21S1161.73-28.59,1181-34.3s38.4-12,57.38-18.6c9.46-3.39,18.94-6.72,28.31-10.34l7.07-2.62c2.35-.86,4.67-1.83,7-2.74,4.66-1.87,9.35-3.67,14-5.59l13.9-5.81c4.63-1.94,9.15-4.1,13.75-6.12,2.28-1,4.61-2,6.85-3.11l6.78-3.28,6.78-3.27c2.27-1.07,4.46-2.29,6.69-3.43l6.68-3.48,3.34-1.74,3.27-1.86,6.53-3.75,3.26-1.88,1.64-.93,1.59-1c4.24-2.67,8.52-5.31,12.75-8q6.14-4.35,12.36-8.66l.31.4q-5.88,4.74-11.83,9.44c-4.09,3-8.24,5.85-12.36,8.78l-1.56,1.08-1.6,1-3.21,2-6.42,4-3.22,2-3.29,1.88-6.58,3.77a560.29,560.29,0,0,1-54.48,26.56c-4.66,2-9.36,3.81-14,5.72-2.34.93-4.67,1.92-7,2.8l-7.09,2.68c-9.43,3.62-19,6.83-28.53,10.16q-28.76,9.51-57.87,17.76T1123.65-15c-19.58,4.83-39.24,9.28-59,13.5s-39.5,8.05-59.32,11.66-39.69,7-59.63,9.88Z"/></g><g class="cls-10"><path class="cls-7" d="M1539.33,109.1s-48.44,31.63-49.15,157.19C1490.18,266.29,1547.16,192,1539.33,109.1Z"/><path class="cls-7" d="M1535.41,83s-55.12,11.48-90,128.67C1445.44,211.63,1520.37,163.41,1535.41,83Z"/><path class="cls-7" d="M1521,42.74s-55.12,11.47-90,128.66C1431,171.4,1505.94,123.18,1521,42.74Z"/><path class="cls-7" d="M1506.72-3.21s47,38.71,143.94-10.4C1650.66-13.61,1566.85-44.4,1506.72-3.21Z"/><path class="cls-7" d="M1510.21,4.65s-9.27,64.76-108.86,106.69C1401.35,111.34,1441.77,23,1510.21,4.65Z"/><path class="cls-7" d="M1497.12-22.53s-23.75,58.87-130.29,67.77C1366.83,45.24,1426.27-26.38,1497.12-22.53Z"/><path class="cls-7" d="M1578.17,256.21c-3.76-18.21-8-36.33-12.42-54.39s-9.14-36-14.1-54-10.1-35.79-15.57-53.55-11.29-35.41-17.39-52.95S1506,6.46,1499-10.74l-5.3-12.87c-1.73-4.3-3.69-8.51-5.48-12.79l-2.72-6.4-2.86-6.34-2.86-6.33c-1-2.12-1.89-4.24-2.91-6.31l-5.95-12.57c-2-4.16-4.19-8.26-6.26-12.41s-4.3-8.2-6.49-12.29l-3.31-6.11c-1.13-2-2.32-4-3.48-6-4.57-8.07-9.54-15.89-14.62-23.64-2.65-3.8-5.24-7.66-7.94-11.43s-5.66-7.35-8.47-11.06l.37-.33c12.74,13.62,23.75,28.83,33.67,44.64a507,507,0,0,1,27,49.06c1,2.09,2,4.21,3,6.33l2.92,6.36,2.92,6.36,2.78,6.42,2.74,6.44c.92,2.15,1.82,4.29,2.67,6.47l5.2,13q10,26.13,18.87,52.63t16.72,53.32q7.88,26.79,14.87,53.83t13.15,54.27c4.11,18.15,8,36.34,11.46,54.63Z"/></g><rect class="cls-11" x="-51.85" y="-22.49" width="1588.56" height="555.15"/></g></g></svg>