<svg xmlns="http://www.w3.org/2000/svg" xmlns:xlink="http://www.w3.org/1999/xlink" viewBox="0 0 1000 1000"><defs><style>.cls-1{isolation:isolate;}.cls-2{opacity:0.49;mix-blend-mode:overlay;fill:url(#무제_그라디언트_41);}.cls-3{fill:#fff;}</style><linearGradient id="무제_그라디언트_41" x1="1766.68" y1="1419.38" x2="1766.68" y2="864.23" gradientUnits="userSpaceOnUse"><stop offset="0" stop-color="#c2f300"/><stop offset="1" stop-color="#303c87" stop-opacity="0"/></linearGradient></defs><g class="cls-1"><g id="레이어_1" data-name="레이어 1"><rect class="cls-2" x="972.4" y="864.23" width="1588.56" height="555.15"/><path class="cls-3" d="M814,0H185.85C83.38,0,0,83.58,0,186.25V813.53C0,916.21,83.38,999.76,185.85,999.76H814c102.43,0,185.79-83.55,185.79-186.23V186.25C999.76,83.58,916.4,0,814,0Zm92.94,813.51a93.18,93.18,0,0,1-75,91.34c9.18-22.22,14.59-45.64,14.59-70.08,0-84-57.8-158.11-145.71-202C834.38,509.84,889.46,299,889.46,299,704.91,324.56,615.79,462.79,573.83,564.42c-10.82-162.9-99-360.3-448.94-403.12,0,0-39.66,282.67,246.37,454.55-110.87,39.46-188,122.25-188,218.94,0,25.1,5.63,49.16,15.3,71.9H185.85a93.16,93.16,0,0,1-93-93.16V186.25a93.17,93.17,0,0,1,93-93.16H814c51.26,0,92.94,41.78,92.94,93.16ZM581.23,793S432.42,444.3,196.13,222C196.13,222,599.39,469.57,581.23,793Z"/></g></g></svg>